<svg width="10" height="6" viewBox="0 0 10 6" fill="none" xmlns="http://www.w3.org/2000/svg">
<path d="M0.208953 0.358867C0.342786 0.225074 0.524278 0.149914 0.713518 0.149914C0.902757 0.149914 1.08425 0.225074 1.21808 0.358867L4.99554 4.13632L8.77299 0.358867C8.83883 0.290704 8.91758 0.236335 9.00465 0.198932C9.09172 0.161529 9.18537 0.141842 9.28013 0.141018C9.37489 0.140195 9.46886 0.158252 9.55657 0.194136C9.64428 0.23002 9.72396 0.283012 9.79097 0.350021C9.85798 0.417029 9.91097 0.496712 9.94686 0.584419C9.98274 0.672127 10.0008 0.766102 9.99997 0.860863C9.99915 0.955623 9.97946 1.04927 9.94206 1.13634C9.90466 1.22341 9.85029 1.30216 9.78212 1.368L5.5001 5.65002C5.36627 5.78381 5.18478 5.85897 4.99554 5.85897C4.8063 5.85897 4.62481 5.78381 4.49097 5.65002L0.208953 1.368C0.0751606 1.23416 0 1.05267 0 0.863431C0 0.674192 0.0751606 0.4927 0.208953 0.358867Z" fill="#212121"/>
</svg>
