<svg width="17" height="17" viewBox="0 0 17 17" fill="none" xmlns="http://www.w3.org/2000/svg">
<path d="M7.72481 1.75187C7.30334 1.75184 6.88612 1.84541 6.49776 2.02707C6.1094 2.20873 5.75774 2.47481 5.46353 2.80962C5.16932 3.14443 4.9385 3.5412 4.78468 3.97653C4.63085 4.41186 4.55714 4.87695 4.56789 5.34438C4.57211 5.54209 4.5159 5.73555 4.4084 5.8933C4.30089 6.05105 4.14843 6.16379 3.97582 6.21317C3.4193 6.3749 2.93481 6.75569 2.61272 7.28452C2.29063 7.81335 2.15293 8.45411 2.22531 9.08728C2.29769 9.72045 2.5752 10.3028 3.00609 10.7257C3.43698 11.1486 3.99181 11.3831 4.5671 11.3856H5.35653C5.5659 11.3856 5.76669 11.4779 5.91474 11.6421C6.06278 11.8064 6.14596 12.0291 6.14596 12.2614C6.14596 12.4937 6.06278 12.7165 5.91474 12.8807C5.76669 13.0449 5.5659 13.1372 5.35653 13.1372H4.5671C3.65793 13.1374 2.77656 12.7894 2.07193 12.152C1.3673 11.5146 0.882619 10.6269 0.699783 9.63884C0.516948 8.6508 0.64717 7.62303 1.06845 6.7292C1.48972 5.83536 2.17622 5.13027 3.01193 4.73308C3.11149 3.62613 3.52512 2.5828 4.19328 1.75331C4.86145 0.923822 5.74965 0.35098 6.73001 0.117273C7.71037 -0.116433 8.73228 0.00105353 9.64861 0.452816C10.5649 0.904579 11.3284 1.66731 11.829 2.63117C13.0682 2.6812 14.2403 3.26833 15.0935 4.26647C15.9468 5.26461 16.4132 6.59417 16.3927 7.96962C16.3721 9.34508 15.8662 10.6567 14.9835 11.6229C14.1009 12.5891 12.9119 13.1328 11.6719 13.1372C11.4626 13.1372 11.2618 13.0449 11.1137 12.8807C10.9657 12.7165 10.8825 12.4937 10.8825 12.2614C10.8825 12.0291 10.9657 11.8064 11.1137 11.6421C11.2618 11.4779 11.4626 11.3856 11.6719 11.3856C12.0971 11.3849 12.5178 11.289 12.9088 11.1035C13.2997 10.9181 13.6529 10.6469 13.9471 10.3064C14.2413 9.9658 14.4705 9.56283 14.6209 9.12161C14.7713 8.68039 14.8398 8.21002 14.8224 7.7387C14.8049 7.26738 14.7019 6.80482 14.5194 6.37877C14.3369 5.95272 14.0787 5.57195 13.7603 5.25929C13.4419 4.94664 13.0699 4.70854 12.6665 4.55927C12.2632 4.41 11.8368 4.35265 11.413 4.39064C11.2485 4.40548 11.084 4.36277 10.9426 4.26852C10.8011 4.17426 10.6898 4.03321 10.6244 3.86517C10.3797 3.23742 9.97478 2.70284 9.45954 2.32732C8.94431 1.9518 8.34128 1.75176 7.72481 1.75187ZM7.95611 6.38746C8.10415 6.22327 8.30491 6.13103 8.51424 6.13103C8.72356 6.13103 8.92432 6.22327 9.07236 6.38746L10.6512 8.13905C10.795 8.30422 10.8746 8.52545 10.8728 8.75508C10.871 8.98471 10.788 9.20437 10.6416 9.36675C10.4952 9.52913 10.2972 9.62124 10.0902 9.62323C9.88326 9.62523 9.68385 9.53695 9.53496 9.37742L9.30366 9.12081V15.7646C9.30366 15.9969 9.22049 16.2196 9.07244 16.3839C8.9244 16.5481 8.7236 16.6404 8.51424 16.6404C8.30487 16.6404 8.10407 16.5481 7.95603 16.3839C7.80798 16.2196 7.72481 15.9969 7.72481 15.7646V9.12081L7.49351 9.37742C7.34462 9.53695 7.14521 9.62523 6.93822 9.62323C6.73124 9.62124 6.53324 9.52913 6.38687 9.36675C6.24051 9.20437 6.15749 8.98471 6.15569 8.75508C6.15389 8.52545 6.23346 8.30422 6.37726 8.13905L7.95611 6.38746Z" fill="white"/>
</svg>
